<svg width="166" height="38" viewBox="0 0 166 38" fill="none" xmlns="http://www.w3.org/2000/svg">
<mask id="mask0_4808_7683" style="mask-type:luminance" maskUnits="userSpaceOnUse" x="0" y="0" width="166" height="38">
<path d="M166 0H0V37.8447H166V0Z" fill="white"/>
</mask>
<g mask="url(#mask0_4808_7683)">
<path fill-rule="evenodd" clip-rule="evenodd" d="M28.3831 0H9.46166C4.23637 0 0 4.23637 0 9.46166V37.8447H9.46166V9.46166H37.8447V0H28.3831Z" fill="#FFC200"/>
<path fill-rule="evenodd" clip-rule="evenodd" d="M28.3835 28.3835H18.9219V37.8452H28.3835C33.6088 37.8452 37.8452 33.6088 37.8452 28.3835V18.9219H28.3835V28.3835Z" fill="#FFC200"/>
<path d="M56.7686 28.3834L56.7799 9.46191H68.7374L68.7355 12.3835H60.2176L60.2157 17.2151H67.7767L67.7748 20.1367H60.2138L60.2081 28.3834H56.7686Z" fill="#FFC200"/>
<path d="M83.1449 21.229C83.1449 22.3573 82.9792 23.3858 82.6514 24.3144C82.3237 25.2431 81.8584 26.0342 81.2575 26.6897C80.6566 27.3453 79.9333 27.8538 79.0856 28.2193C78.2399 28.5828 77.3056 28.7655 76.2865 28.7655C75.2674 28.7655 74.3388 28.5828 73.5024 28.2193C72.6661 27.8557 71.9465 27.3453 71.3457 26.6897C70.7448 26.0342 70.2776 25.2431 69.9404 24.3144C69.6033 23.3858 69.4375 22.3573 69.4375 21.229C69.4375 20.1007 69.607 19.0778 69.9442 18.1567C70.2814 17.2375 70.7542 16.4501 71.3645 15.7946C71.9748 15.1391 72.6981 14.6343 73.5364 14.2801C74.3727 13.926 75.2919 13.7471 76.294 13.7471C77.2962 13.7471 78.2192 13.9241 79.0649 14.2801C79.9107 14.6343 80.634 15.141 81.2349 15.7946C81.8358 16.4501 82.3029 17.2375 82.6401 18.1567C82.9754 19.076 83.1431 20.1007 83.1431 21.229M79.7581 21.229C79.7581 19.8087 79.4548 18.686 78.8464 17.8572C78.2361 17.0284 77.3866 16.6159 76.294 16.6159C75.2015 16.6159 74.3501 17.0303 73.7398 17.8572C73.1295 18.686 72.8243 19.8087 72.8224 21.229C72.8224 22.6662 73.1257 23.804 73.7341 24.6422C74.3426 25.4804 75.194 25.8986 76.2865 25.8986C77.379 25.8986 78.2305 25.4804 78.8408 24.6422C79.4511 23.8059 79.7562 22.6681 79.7581 21.229Z" fill="#FFC200"/>
<path d="M93.6031 17.0793C93.3299 16.9889 92.9513 16.8929 92.471 16.793C91.9887 16.6932 91.4293 16.6423 90.7926 16.6423C90.4291 16.6423 90.041 16.68 89.6323 16.7516C89.2235 16.825 88.9353 16.8872 88.7714 16.9418L88.7639 28.3832H85.46L85.4675 14.785C86.1042 14.5477 86.901 14.3254 87.856 14.1163C88.811 13.9072 89.8715 13.8018 91.0375 13.8018C91.256 13.8018 91.5103 13.8149 91.8023 13.8432C92.0923 13.8715 92.3843 13.9072 92.6763 13.9525C92.9664 13.9977 93.2489 14.0523 93.5221 14.1163C93.7952 14.1804 94.0137 14.2388 94.1776 14.2934L93.6031 17.0775V17.0793Z" fill="#FFC200"/>
<path d="M99.5275 9.46191H96.0879V28.3852H99.5275V9.46191Z" fill="#FFC200"/>
<path d="M102.261 14.5666C102.897 14.3858 103.726 14.2125 104.745 14.0486C105.764 13.8847 106.892 13.8037 108.13 13.8037C109.294 13.8037 110.268 13.9638 111.052 14.2822C111.833 14.6005 112.457 15.0469 112.92 15.6196C113.384 16.1922 113.711 16.8854 113.902 17.6954C114.092 18.5053 114.188 19.3925 114.186 20.357L114.18 28.3852H110.876L110.882 20.875C110.882 20.1102 110.833 19.4604 110.733 18.9235C110.633 18.3867 110.47 17.9497 110.244 17.6125C110.016 17.2753 109.707 17.0304 109.315 16.876C108.923 16.7215 108.447 16.6443 107.881 16.6443C107.463 16.6443 107.026 16.6725 106.57 16.7253C106.115 16.7799 105.777 16.8251 105.561 16.8628L105.553 28.3871H102.249L102.259 14.5704L102.261 14.5666Z" fill="#FFC200"/>
<path d="M120.428 28.3826C119.517 26.5084 118.58 24.3534 117.622 21.9235C116.663 19.4936 115.793 16.8866 115.009 14.1025H118.531C118.731 14.9031 118.965 15.7639 119.228 16.6832C119.492 17.6024 119.775 18.5216 120.076 19.4408C120.377 20.3601 120.686 21.2529 121.007 22.1156C121.327 22.9802 121.623 23.7582 121.896 24.4495C122.171 23.7582 122.463 22.9802 122.775 22.1156C123.086 21.251 123.393 20.3601 123.695 19.4408C123.996 18.5216 124.284 17.6024 124.559 16.6832C124.834 15.7639 125.072 14.905 125.273 14.1025H128.686C127.899 16.8866 127.025 19.4955 126.064 21.9235C125.104 24.3534 124.166 26.5084 123.25 28.3826H120.426H120.428Z" fill="#FFC200"/>
<path d="M129.448 21.3099C129.448 20.0535 129.636 18.9535 130.009 18.006C130.382 17.0604 130.879 16.273 131.499 15.6439C132.119 15.0166 132.829 14.5419 133.629 14.2236C134.43 13.9052 135.249 13.7451 136.087 13.7451C138.054 13.7451 139.585 14.3554 140.687 15.5742C141.787 16.7948 142.337 18.6144 142.336 21.0349C142.336 21.2176 142.33 21.4211 142.322 21.649C142.313 21.8769 142.3 22.0822 142.281 22.2631H132.863C132.953 23.4102 133.356 24.2974 134.076 24.9247C134.793 25.5519 135.837 25.8665 137.201 25.8665C138.001 25.8665 138.734 25.793 139.399 25.648C140.064 25.503 140.588 25.3485 140.97 25.1846L141.405 27.8877C141.222 27.9781 140.972 28.0742 140.653 28.174C140.335 28.2738 139.972 28.3643 139.561 28.4471C139.152 28.5281 138.709 28.5978 138.237 28.6525C137.764 28.7071 137.282 28.7334 136.79 28.7334C135.534 28.7334 134.443 28.547 133.514 28.174C132.586 27.801 131.823 27.283 131.222 26.6181C130.621 25.9532 130.176 25.1714 129.886 24.271C129.596 23.3707 129.451 22.3836 129.451 21.308M139.035 19.8331C139.035 19.3792 138.971 18.9459 138.845 18.5372C138.717 18.1284 138.531 17.7724 138.286 17.4729C138.041 17.1715 137.739 16.936 137.385 16.7628C137.031 16.5895 136.607 16.5028 136.116 16.5028C135.624 16.5028 135.161 16.5989 134.778 16.7891C134.396 16.9813 134.072 17.2299 133.808 17.5407C133.544 17.8496 133.339 18.2056 133.192 18.605C133.045 19.0062 132.945 19.415 132.891 19.8331H139.033H139.035Z" fill="#FFC200"/>
<path d="M148.855 26.0059C149.729 26.0059 150.366 25.9023 150.767 25.6913C151.166 25.4822 151.368 25.1225 151.368 24.612C151.368 24.1392 151.153 23.7474 150.727 23.4385C150.3 23.1295 149.595 22.7924 148.612 22.4288C148.011 22.2103 147.461 21.9786 146.96 21.7319C146.459 21.487 146.027 21.1988 145.664 20.871C145.3 20.5433 145.014 20.1477 144.805 19.6843C144.596 19.2209 144.492 18.6521 144.492 17.9777C144.492 16.6667 144.976 15.6344 145.941 14.8791C146.905 14.1237 148.216 13.7451 149.872 13.7451C150.708 13.7451 151.511 13.8223 152.276 13.9768C153.04 14.1313 153.613 14.282 153.995 14.427L153.393 17.1018C153.029 16.9379 152.564 16.7872 152.001 16.6516C151.435 16.516 150.782 16.4463 150.034 16.4463C149.36 16.4463 148.813 16.5593 148.395 16.7872C147.977 17.0152 147.766 17.3655 147.766 17.8383C147.766 18.0757 147.808 18.2848 147.889 18.4656C147.97 18.6483 148.111 18.8159 148.31 18.9704C148.51 19.1249 148.774 19.2793 149.102 19.4338C149.429 19.5883 149.829 19.7484 150.303 19.9122C151.085 20.2042 151.75 20.4905 152.296 20.7731C152.843 21.0556 153.293 21.374 153.647 21.7281C154.001 22.0822 154.261 22.4891 154.425 22.9431C154.589 23.3989 154.67 23.9433 154.67 24.5819C154.67 25.9475 154.163 26.9798 153.153 27.6805C152.142 28.3812 150.699 28.7316 148.825 28.7316C147.568 28.7316 146.559 28.6261 145.794 28.417C145.029 28.2079 144.492 28.0403 144.183 27.9122L144.758 25.1545C145.25 25.3542 145.835 25.5463 146.519 25.7271C147.201 25.9098 147.979 26.0003 148.853 26.0003" fill="#FFC200"/>
<path d="M157.055 10.3362L160.358 9.79004V14.1035H165.433V16.8612H160.353L160.349 22.6761C160.349 23.8233 160.53 24.6408 160.893 25.1324C161.257 25.624 161.877 25.8689 162.749 25.8689C163.35 25.8689 163.883 25.8049 164.346 25.6787C164.81 25.5506 165.179 25.4319 165.452 25.3245L165.996 27.9447C165.614 28.1086 165.113 28.2763 164.495 28.4496C163.875 28.6228 163.148 28.7095 162.31 28.7095C161.291 28.7095 160.439 28.5739 159.758 28.3007C159.076 28.0276 158.533 27.632 158.134 27.1121C157.733 26.5941 157.452 25.965 157.288 25.2285C157.124 24.492 157.043 23.65 157.043 22.7025L157.051 10.3343L157.055 10.3362Z" fill="#FFC200"/>
</g>
</svg>
